<svg width="44" height="44" viewBox="0 0 44 44" fill="none" xmlns="http://www.w3.org/2000/svg">
<path d="M6.87993 13.0748C6.90914 10.9953 8.31762 9.2456 10.2943 8.57236L19.3915 5.47402C21.0842 4.89749 22.9215 4.89749 24.6143 5.47403L33.7031 8.56954C35.684 9.24423 37.0939 10.9998 37.1208 13.0837C37.1747 17.2556 36.7498 24.3259 33.6813 28.8773C30.516 33.5723 23.8712 38.0416 22.0029 38.0416C20.1345 38.0416 13.3403 33.3694 10.3248 28.8773C7.24229 24.2853 6.82151 17.2332 6.87993 13.0748Z" fill="#DCEAFC"/>
<path fill-rule="evenodd" clip-rule="evenodd" d="M6.875 13.7747C6.875 13.7757 6.875 13.7767 6.875 13.7778C6.87513 17.9927 7.40987 24.535 10.3248 28.8773C13.3388 33.3671 20.1276 38.0368 22 38.0416V5.04163C21.1184 5.04194 20.2369 5.18607 19.3915 5.47402L10.2943 8.57236C8.31762 9.2456 6.90914 10.9953 6.87993 13.0748C6.87677 13.2999 6.87501 13.5335 6.875 13.7747Z" fill="#DCEAFC"/>
<path d="M25.1812 27.9753C25.1529 27.9695 25.1236 27.9634 25.0953 27.9575C22.516 27.208 20.2945 25.5867 18.8284 23.3839C17.3624 21.1811 16.7477 18.5408 17.0944 15.9359C17.115 15.7886 17.1661 15.6469 17.2448 15.5196C17.3234 15.3923 17.4279 15.282 17.5519 15.1956C17.6728 15.1112 17.8103 15.0522 17.9558 15.0224C18.1013 14.9926 18.2515 14.9925 18.397 15.0223L20.6242 15.4683C20.8626 15.5166 21.0775 15.6414 21.2347 15.8228C21.392 16.0042 21.4825 16.2318 21.4918 16.4692L21.5636 18.3638C21.5717 18.5728 21.5159 18.7796 21.4033 18.9576C21.2907 19.1356 21.1264 19.2769 20.9313 19.3635L19.8993 19.8237C20.3778 21.3777 21.2963 22.7683 22.5488 23.8353L23.4329 23.0843C23.5947 22.9471 23.7943 22.8594 24.0069 22.8323C24.2194 22.8051 24.4354 22.8397 24.6279 22.9316L26.3845 23.7664C26.6044 23.8695 26.7823 24.0418 26.8895 24.2556C26.9967 24.4695 27.027 24.7123 26.9755 24.945L26.4921 27.1636C26.462 27.3056 26.4018 27.4397 26.3152 27.5575C26.2287 27.6753 26.1178 27.7741 25.9898 27.8474C25.7463 27.9879 25.4576 28.0335 25.1812 27.9753Z" fill="#7891B5"/>
<path d="M33.2 33.8276C33.2 33.3705 33.5705 33 34.0276 33C34.4847 33 34.8552 33.3705 34.8552 33.8276C34.8552 34.2846 34.4847 34.6552 34.0276 34.6552C33.5705 34.6552 33.2 34.2846 33.2 33.8276Z" fill="white"/>
<path d="M29 31C29 29.8954 29.8954 29 31 29H39C40.1046 29 41 29.8954 41 31V36C41 37.1046 40.1046 38 39 38H31C29.8954 38 29 37.1046 29 36V31Z" fill="#2AD6CE"/>
<path d="M34.25 32.75C34.25 32.3358 34.5858 32 35 32C35.4142 32 35.75 32.3358 35.75 32.75V34.25C35.75 34.6642 35.4142 35 35 35C34.5858 35 34.25 34.6642 34.25 34.25V32.75Z" fill="white"/>
<path fill-rule="evenodd" clip-rule="evenodd" d="M35 24C33.067 24 31.5 25.567 31.5 27.5V29.5H33V27.5C33 26.3954 33.8954 25.5 35 25.5C36.1046 25.5 37 26.3954 37 27.5V29.5H38.5V27.5C38.5 25.567 36.933 24 35 24Z" fill="#2AD6CE"/>
</svg>
